<svg width="32" height="32" viewBox="0 0 32 32" fill="none" xmlns="http://www.w3.org/2000/svg">
<path fill-rule="evenodd" clip-rule="evenodd" d="M31.0076 21.5597C28.7485 27.6555 22.8816 32 16 32C7.16344 32 0 24.8366 0 16C0 15.8342 0.00252166 15.669 0.00752873 15.5044C1.23871 15.0255 2.42226 14.602 3.55863 14.2405C9.15476 12.4605 12.7699 12.4671 15.1167 13.822C16.5516 14.6505 18.3863 14.1588 19.2148 12.724C20.0432 11.2891 19.5516 9.45432 18.1167 8.62589C13.4793 5.94847 7.73561 6.63283 1.87346 8.48054C4.56511 3.43438 9.88148 0 16 0C24.426 0 31.3308 6.5133 31.9542 14.7798C30.3426 15.4326 28.8093 15.9975 27.3535 16.4605C21.7574 18.2406 18.1422 18.234 15.7954 16.879C14.3605 16.0506 12.5258 16.5422 11.6973 17.9771C10.8689 19.412 11.3605 21.2468 12.7954 22.0752C17.4681 24.773 23.2638 24.0577 29.1722 22.1782C29.7742 21.9868 30.3861 21.7802 31.0076 21.5597Z" fill="#23EAA4"/>
</svg>
