<svg width="28" height="28" viewBox="0 0 28 28" fill="none" xmlns="http://www.w3.org/2000/svg">
<g clip-path="url(#clip0_942_26)">
<path d="M1.69837 1.84895C-0.437048 4.06702 -8.64267e-07 6.42323 -8.64267e-07 13.5813C-8.64267e-07 19.5256 -1.03714 25.4846 4.39085 26.8874C6.08582 27.3234 21.1039 27.3234 22.7966 26.8852C25.0566 26.3021 26.8954 24.469 27.1467 21.2726C27.1818 20.8265 27.1818 6.34397 27.1456 5.88881C26.8784 2.48414 24.7826 0.52196 22.021 0.124542C21.3881 0.0328297 21.2613 0.00565582 18.014 -5.41285e-06C6.49569 0.00565582 3.97079 -0.507252 1.69837 1.84895Z" fill="#23EAA4"/>
<path d="M22 14.1934V19.9963H18.5701V14.5839C18.5701 13.2226 18.0753 12.2956 16.8328 12.2956C15.8842 12.2956 15.3225 12.9197 15.0732 13.5255C14.984 13.7409 14.9579 14.0438 14.9579 14.3467V20H11.528C11.528 20 11.5727 10.8285 11.528 9.87956H14.9579V11.3139C14.9505 11.3248 14.943 11.3358 14.9356 11.3467H14.9579V11.3139C15.4155 10.6241 16.2265 9.64234 18.0493 9.64234C20.3074 9.63869 22 11.0876 22 14.1934ZM7.94187 5C6.76633 5 6 5.75547 6 6.74818C6 7.71898 6.74401 8.49635 7.89723 8.49635H7.91955C9.11741 8.49635 9.86143 7.71898 9.86143 6.74818C9.83539 5.75547 9.11369 5 7.94187 5ZM6.2046 20H9.6345V9.87591H6.2046V20Z" fill="#1F1F31"/>
</g>
<defs>
<clipPath id="clip0_942_26">
<rect width="27.1739" height="27.1739" fill="white"/>
</clipPath>
</defs>
</svg>
