<svg width="28" height="28" viewBox="0 0 28 28" fill="none" xmlns="http://www.w3.org/2000/svg">
<g clip-path="url(#clip0_942_33)">
<path d="M1.69841 2.43309C-0.435171 4.64275 3.60459e-05 6.98985 3.60459e-05 14.121C3.60459e-05 20.0416 -1.03491 25.9781 4.38926 27.3736C6.08233 27.8071 21.1023 27.8071 22.7954 27.3736C25.0563 26.7922 26.8927 24.9684 27.1474 21.7861C27.1846 21.342 27.1846 6.91584 27.1474 6.46122C26.8821 3.07273 24.7856 1.11682 22.0205 0.720347C21.3889 0.625195 21.2615 0.598763 18.0134 0.593477C6.4963 0.598763 3.96998 0.0859964 1.69841 2.43309Z" fill="#23EAA4"/>
<path d="M6.19176 13.1773C11.2141 10.9762 17.7145 8.29403 18.6138 7.92242C20.9671 6.95054 21.6894 7.13634 21.3306 9.28974C21.0723 10.8381 20.3262 15.9595 19.733 19.1468C19.3791 21.0381 18.5899 21.262 17.3414 20.4426C16.7435 20.0472 13.7205 18.0605 13.0652 17.5889C12.4673 17.1649 11.6398 16.6503 12.6778 15.6403C13.0461 15.283 15.4616 12.982 17.3414 11.1954C17.5902 10.962 17.2793 10.5761 16.9923 10.7619C14.4572 12.4388 10.9367 14.7637 10.4919 15.0639C9.81743 15.5212 9.16692 15.7309 7.99981 15.3974C7.1197 15.1449 6.25872 14.8447 5.9239 14.7304C4.63721 14.2969 4.94334 13.7252 6.19176 13.1773Z" fill="#1F1F31"/>
</g>
<defs>
<clipPath id="clip0_942_33">
<rect width="27.174" height="27.0656" fill="white" transform="translate(0 0.59375)"/>
</clipPath>
</defs>
</svg>
