<svg width="44" height="45" viewBox="0 0 44 45" fill="none" xmlns="http://www.w3.org/2000/svg">
<path fill-rule="evenodd" clip-rule="evenodd" d="M42.2426 28.6846C39.5682 37.563 31.3284 44.0296 21.5783 44.0296C9.66093 44.0296 0 34.3687 0 22.4513C0 21.8403 0.0253989 21.2352 0.0751985 20.637C1.59633 20.0534 3.06511 19.5328 4.48154 19.0823C12.0832 16.6643 17.3388 16.5474 20.9093 18.6088C22.3441 19.4372 24.1789 18.9456 25.0073 17.5107C25.8358 16.0758 25.3441 14.241 23.9092 13.4126C18.013 10.0084 10.5767 10.8472 2.66278 13.3646C2.40512 13.4465 2.14606 13.5306 1.88562 13.6166C5.26102 6.1044 12.8087 0.873047 21.5783 0.873047C33.3149 0.873047 42.863 10.2431 43.1499 21.9107C41.0759 22.7432 39.0948 23.4683 37.2068 24.0689C29.6052 26.4869 24.3495 26.6037 20.7791 24.5424C19.3442 23.7139 17.5095 24.2056 16.681 25.6404C15.8526 27.0753 16.3442 28.9101 17.7791 29.7385C23.6754 33.1427 31.1117 32.3039 39.0256 29.7866C40.075 29.4528 41.1476 29.0844 42.2426 28.6846Z" fill="#49495A"/>
</svg>
