<svg width="28" height="28" viewBox="0 0 28 28" fill="none" xmlns="http://www.w3.org/2000/svg">
<g clip-path="url(#clip0_942_29)">
<path d="M1.6984 1.84688C-0.435171 4.06537 3.59267e-05 6.42186 3.59267e-05 13.5815C3.59267e-05 19.5258 -1.03491 25.4861 4.38926 26.8872C6.08232 27.3224 21.1023 27.3224 22.7953 26.8872C25.0563 26.3034 26.8926 24.4723 27.1474 21.2773C27.1845 20.8315 27.1845 6.34756 27.1474 5.89112C26.882 2.48907 24.7856 0.525336 22.0204 0.12728C21.3889 0.0317472 21.2615 0.00521014 18.0134 -9.72673e-05C6.49629 0.00521014 3.96997 -0.509608 1.6984 1.84688Z" fill="#23EAA4"/>
<path d="M22.6308 8.96422C21.9674 9.26143 21.2509 9.45781 20.4972 9.54803C21.2615 9.08629 21.8506 8.36448 22.1319 7.49407C21.4154 7.91866 20.6193 8.22649 19.7754 8.39632C19.096 7.67452 18.1354 7.22339 17.0633 7.22339C15.0147 7.22339 13.3534 8.88461 13.3534 10.9333C13.3534 11.2252 13.3853 11.5065 13.449 11.7771C10.3654 11.6232 7.63206 10.1425 5.801 7.89743C5.48256 8.44409 5.2968 9.08098 5.2968 9.76563C5.2968 11.0553 5.95492 12.1911 6.9474 12.8545C6.33705 12.8333 5.76916 12.6688 5.26495 12.3875C5.26495 12.4034 5.26495 12.4193 5.26495 12.4353C5.26495 14.2345 6.54404 15.7312 8.24241 16.0761C7.92927 16.1611 7.60021 16.2088 7.26584 16.2088C7.02701 16.2088 6.79349 16.1876 6.56527 16.1451C7.03763 17.6206 8.40694 18.6927 10.031 18.7245C8.76253 19.7223 7.1597 20.3114 5.41887 20.3114C5.12165 20.3114 4.82444 20.2955 4.53253 20.2584C6.17252 21.3092 8.12564 21.9249 10.2221 21.9249C17.0474 21.9249 20.7838 16.2725 20.7838 11.3632C20.7838 11.2039 20.7785 11.0447 20.7732 10.8855C21.5056 10.3601 22.1319 9.70725 22.6308 8.96422Z" fill="#1F1F31"/>
</g>
<defs>
<clipPath id="clip0_942_29">
<rect width="27.1739" height="27.1739" fill="white"/>
</clipPath>
</defs>
</svg>
